<?xml version="1.0" encoding="UTF-8" standalone="no"?>
<svg width="143px" height="48px" viewBox="0 0 143 48" version="1.1" xmlns="http://www.w3.org/2000/svg" xmlns:xlink="http://www.w3.org/1999/xlink">
    <!-- Generator: Sketch 3.6.1 (26313) - http://www.bohemiancoding.com/sketch -->
    <title>Regular</title>
    <desc>Created with Sketch.</desc>
    <defs></defs>
    <g id="Page-1" stroke="none" stroke-width="1" fill="none" fill-rule="evenodd">
        <g id="Regular">
            <path d="M22.5791079,45.0025915 C33.3539344,45.0025915 42.0886572,36.2709839 42.0886572,25.5 C42.0886572,14.7290161 33.3539344,5.99740848 22.5791079,5.99740848 C11.8042813,5.99740848 3.06955861,14.7290161 3.06955861,25.5 C3.06955861,36.2709839 11.8042813,45.0025915 22.5791079,45.0025915 Z" id="Oval-2" stroke="#3D7FAF" stroke-width="0.5" fill="#FFFFFF"></path>
            <path d="M31.6209656,26.1367423 L28.2294051,22.5501008 L30.0823102,22.2923606 C30.2582351,22.2679113 30.4225756,22.1914464 30.5539302,22.0729989 C32.128713,20.6529925 32.2455381,18.2265717 30.8145778,16.6640581 C30.0187927,15.7952806 28.8748884,15.3479854 27.7163563,15.4199695 L27.7163563,15.418411 L18.8533557,15.9247352 C17.8549428,15.9636982 16.9112119,16.3449511 16.1629422,17.0195954 C15.3206233,17.7790817 14.8268164,18.8185171 14.7724289,19.9464959 C14.7217719,20.9984968 15.0592885,22.0098789 15.7258788,22.8193352 L15.7234245,22.8216729 L15.7671112,22.8678441 C15.8024533,22.9095345 15.8379917,22.9512249 15.8751008,22.9917464 L15.8800094,22.9873631 L19.7423064,27.0717568 L16.0169599,27.9171565 C15.8483979,27.9554376 15.6948564,28.0418381 15.5754788,28.1657404 C13.5627491,30.2534753 13.6371637,33.5764346 15.7410956,35.573483 C16.7313602,36.5132706 18.0222285,37.0268029 19.3881005,37.0268029 C19.4280567,37.0268029 19.4682092,37.0263159 19.5083617,37.0254392 C20.2078398,37.0100488 20.8834619,36.8606257 21.5059729,36.5909043 L29.806544,33.9546679 L29.8090965,33.9620708 C29.8617169,33.9443427 29.9132574,33.9237897 29.9651906,33.9042108 L29.9801128,33.8994378 L29.9798183,33.898756 C30.6334498,33.6502694 31.231025,33.2588861 31.7158001,32.7560686 C33.511078,30.8939295 33.4619919,27.9413135 31.6209656,26.1367423 L31.6209656,26.1367423 Z M29.7592444,17.9197058 C30.5146905,18.7349533 30.5130394,19.9679443 29.7951541,20.7807631 L22.986646,21.7166381 C23.28156,20.8563577 23.3064285,19.9096546 23.0231749,19.0128418 C22.8527068,18.473054 22.5834869,17.9802219 22.2215002,17.5444652 L27.6090969,17.2402654 L27.6171456,17.2732558 C28.3991112,17.0895822 29.2196695,17.337415 29.7592444,17.9197058 L29.7592444,17.9197058 Z M19.5978349,35.2247955 C18.6350567,35.2439833 17.7220339,34.9223593 17.0263639,34.3186747 C15.6527506,33.126747 15.5463907,31.1777237 16.7414283,29.8702124 L21.3148013,28.9214216 L22.2760687,29.8508419 C22.8052493,30.4193489 23.103077,31.1287491 23.1215087,31.883195 C23.1428612,32.7563312 22.788127,33.5848785 22.1225721,34.2159743 C21.4570173,34.8471614 20.5604118,35.205425 19.5978349,35.2247955 L19.5978349,35.2247955 Z M30.4207376,31.98501 C30.1324676,32.2906974 29.7934789,32.5242979 29.4115523,32.6813304 L24.3482394,34.3250091 C24.6448664,33.6366767 24.7933721,32.8854143 24.7764659,32.1120388 C24.7464958,30.739855 24.2003101,29.4607022 23.2387695,28.4992189 L17.3578109,22.1427132 C16.9808794,21.6704466 16.7900121,21.0821591 16.8188295,20.4702972 C16.8500484,19.8100202 17.1328431,19.2016652 17.6152464,18.7570644 C18.0238771,18.3804591 18.5344253,18.1606914 19.0767687,18.1210436 L19.0767687,18.1213359 L19.1676396,18.1160755 C19.2356487,18.1136401 19.304042,18.1134453 19.3728195,18.11666 C20.0238045,18.1482223 20.6237827,18.4351087 21.0620954,18.9242281 C21.3041615,19.1943591 21.4806201,19.5071578 21.586572,19.8542464 C21.8661008,20.7693604 21.5956015,21.7764338 20.8972599,22.4198581 C20.6165784,22.6784942 20.5349291,23.0926042 20.6959223,23.4408618 C20.8397211,23.7518096 21.1469146,23.9454701 21.4783147,23.9454701 C21.5181787,23.9454701 21.558427,23.9426451 21.5986753,23.936995 L26.1635433,23.2881155 L30.5461893,28.0251988 C31.494666,29.1682632 31.4617181,30.8813986 30.4207376,31.98501 L30.4207376,31.98501 Z" id="Fill-6" fill="#3D7FAF"></path>
            <path d="M50.1448937,29.3954378 C50.60036,29.6300993 51.0662188,29.8061708 51.5424703,29.9235015 C52.0185711,30.0408323 52.4775016,30.0994224 52.9192617,30.0994224 C53.4437106,30.0994224 53.8854707,29.98902 54.2442408,29.7682153 C54.6031615,29.5474105 54.7825465,29.2229812 54.7825465,28.7950778 C54.7825465,28.601836 54.7480552,28.4292288 54.6790725,28.2774067 C54.6100898,28.1255846 54.4962233,27.9806909 54.3374728,27.8427256 C54.1787223,27.7047603 53.9613818,27.5666443 53.6853005,27.4285284 C53.4092193,27.2905631 53.0641554,27.138741 52.6501088,26.9732127 C52.166929,26.7799709 51.7598108,26.5832649 51.4284531,26.3830947 C51.097246,26.1829245 50.8280931,25.9621198 50.6211451,25.7205299 C50.4140466,25.47894 50.2622245,25.2167155 50.1655283,24.9338565 C50.0689827,24.6508468 50.0206346,24.3298817 50.0206346,23.9711116 C50.0206346,22.977189 50.3830194,22.2009082 51.1076385,21.641968 C51.8322577,21.0828771 52.7880741,20.8033317 53.9750879,20.8033317 C54.9965735,20.8033317 55.8867208,20.9551537 56.6459819,21.2587979 L56.4388833,23.1222334 C56.0248368,22.9289915 55.6210322,22.787562 55.2277708,22.6977942 C54.8343588,22.6080264 54.4374826,22.5631425 54.0371422,22.5631425 C53.554113,22.5631425 53.1539232,22.6667671 52.8364222,22.873715 C52.5189213,23.0808136 52.3601708,23.3844578 52.3601708,23.7847982 C52.3601708,23.9778894 52.3946621,24.1470325 52.4637954,24.2919262 C52.5327781,24.4369705 52.6431804,24.5716222 52.7950025,24.6957308 C52.9468246,24.8199899 53.1469948,24.9373207 53.3953625,25.0475724 C53.6438808,25.1581254 53.947525,25.282234 54.3064457,25.4203499 C55.2725041,25.7929767 55.9903454,26.2174159 56.4595179,26.6936673 C56.9288409,27.1697681 57.1635025,27.8080836 57.1635025,28.6087644 C57.1635025,29.1470701 57.0634927,29.6198574 56.8633225,30.0269755 C56.6631523,30.4340937 56.3801426,30.7791576 56.0144442,31.0621672 C55.6487457,31.3450262 55.213914,31.555589 54.7100996,31.693705 C54.2062853,31.8316703 53.657587,31.9006529 53.0641554,31.9006529 C51.959981,31.9006529 50.9384955,31.7211173 50,31.3623472 L50.1448937,29.3954378 L50.1448937,29.3954378 Z M68.2742287,23.1842876 C67.7359229,22.9220632 67.1286346,22.7910262 66.4522129,22.7910262 C65.927764,22.7910262 65.4549768,22.8806434 65.0340018,23.0600285 C64.6130269,23.2395641 64.257721,23.4846182 63.967783,23.7951908 C63.6779956,24.1056127 63.4571908,24.474926 63.3052181,24.9026787 C63.153396,25.3307327 63.077485,25.7999051 63.077485,26.3106479 C63.077485,26.8350968 63.1500825,27.3148124 63.2949762,27.7494935 C63.4398699,28.1843253 63.6572104,28.5604163 63.9471484,28.8779173 C64.2369358,29.1952676 64.5923923,29.4437859 65.0133673,29.6233216 C65.4343422,29.8027066 65.9139072,29.8923238 66.4522129,29.8923238 C66.8111336,29.8923238 67.1458049,29.8579831 67.4563775,29.7888498 C67.7669501,29.7198672 68.1016214,29.6025364 68.4605421,29.4368575 L68.6054358,31.4037669 C67.9016018,31.6659914 67.0941433,31.7971789 66.1830601,31.7971789 C65.3411102,31.7971789 64.5750714,31.6694556 63.8849436,31.4141595 C63.1948158,31.1587128 62.6048484,30.7930144 62.1148908,30.3167629 C61.6247825,29.8406621 61.2452273,29.2711787 60.9760745,28.6087644 C60.7069216,27.9461996 60.5724205,27.2007953 60.5724205,26.3727021 C60.5724205,25.544609 60.71385,24.7957405 60.9968596,24.1263979 C61.2797186,23.4569047 61.6731307,22.8841076 62.176945,22.4080068 C62.6807594,21.9317554 63.274191,21.5624421 63.9573904,21.3002176 C64.6407404,21.0379932 65.3894583,20.9069563 66.2038453,20.9069563 C67.0457951,20.9069563 67.7911994,21.024287 68.4399075,21.2587979 L68.2742287,23.1842876 L68.2742287,23.1842876 Z M74.5017961,22.9565545 C74.7917341,22.2939896 75.1782177,21.7695407 75.661247,21.3830571 C76.1442762,20.9965735 76.7447868,20.8033317 77.4624775,20.8033317 C77.6557193,20.8033317 77.828176,20.81026 77.9801487,20.8241168 C78.1318201,20.837823 78.2837928,20.8723143 78.4356149,20.9275908 L78.4356149,23.0393939 C78.1870966,22.9426977 77.8558895,22.8943496 77.441843,22.8943496 C76.5170536,22.8943496 75.8096049,23.2498061 75.3196473,23.960719 C74.8296897,24.6714814 74.5846355,25.7170657 74.5846355,27.0973213 L74.5846355,31.6521346 L72.2036796,31.6521346 L72.2036796,24.1986941 C72.2036796,23.6328255 72.1967512,23.0773494 72.183045,22.5321153 C72.1691882,21.9868812 72.1416253,21.4934595 72.1002056,21.0516993 L74.377537,21.0516993 C74.4052505,21.3002176 74.4258851,21.6107902 74.4397418,21.9835677 C74.453448,22.3561945 74.4603764,22.6806239 74.4603764,22.9565545 L74.5017961,22.9565545 L74.5017961,22.9565545 Z M82.0457575,16.6625649 L84.5301874,16.6625649 L84.5301874,19.0849405 L82.0457575,19.0849405 L82.0457575,16.6625649 Z M82.1078118,21.0516993 L84.4887677,21.0516993 L84.4887677,31.6521346 L82.1078118,31.6521346 L82.1078118,21.0516993 Z M89.0437317,24.2194793 C89.0437317,23.6536107 89.0368033,23.0946704 89.0230971,22.5425079 C89.0092404,21.9903454 88.9816774,21.4934595 88.9402577,21.0516993 L91.1969545,21.0516993 C91.2245175,21.2726547 91.2453026,21.5418076 91.2590088,21.8593085 C91.2728656,22.1766589 91.279794,22.4735253 91.279794,22.7494559 L91.3212137,22.7494559 C91.7628232,22.0870417 92.2735659,21.5970841 92.8532914,21.2795831 C93.4330168,20.9620821 94.130073,20.8033317 94.9443093,20.8033317 C95.6207309,20.8033317 96.2384119,20.931055 96.7973522,21.1863511 C97.3562924,21.4416471 97.8325438,21.8074962 98.2259559,22.2837477 C98.6193679,22.7598485 98.923012,23.3326455 99.1368884,24.0021388 C99.3507648,24.6714814 99.4578536,25.4134215 99.4578536,26.2278084 C99.4578536,27.0697583 99.3474512,27.8392614 99.1264958,28.5363176 C98.9056911,29.2333737 98.5951185,29.8302695 98.1949287,30.3271555 C97.7945883,30.8240415 97.3115591,31.2105251 96.7455398,31.4866064 C96.1796712,31.7626876 95.5517483,31.9006529 94.8616205,31.9006529 C94.0472335,31.9006529 93.3536415,31.7211173 92.7808445,31.3623472 C92.2080475,31.0035772 91.7421886,30.5273257 91.3832679,29.9338941 L91.3418482,29.9338941 C91.355705,30.0441459 91.3660976,30.2098248 91.373026,30.4306295 C91.3798037,30.6514343 91.3867321,30.8930242 91.3936605,31.1553992 C91.4005889,31.4176237 91.4040531,31.6729198 91.4040531,31.9214381 L91.4040531,36 L89.0437317,36 L89.0437317,24.2194793 L89.0437317,24.2194793 Z M94.2818951,22.7081868 C93.8676979,22.7081868 93.4846785,22.8014188 93.1328368,22.9875816 C92.7808445,23.1740457 92.4772003,23.4293417 92.2217536,23.7537711 C91.9664576,24.0780498 91.7662874,24.4645334 91.6213937,24.9130713 C91.4765,25.3616092 91.4040531,25.8482532 91.4040531,26.3727021 C91.4040531,26.8834449 91.4765,27.3595457 91.6213937,27.8011552 C91.7662874,28.2429153 91.9629934,28.629399 92.2115117,28.9607567 C92.4598794,29.2919638 92.7600593,29.5508747 93.1120516,29.7371881 C93.4640439,29.9235015 93.8470633,30.0165829 94.2611099,30.0165829 C94.6890132,30.0165829 95.0720327,29.9235015 95.4101682,29.7371881 C95.7483037,29.5508747 96.0347775,29.2919638 96.269439,28.9607567 C96.5041006,28.629399 96.6834856,28.2429153 96.8077447,27.8011552 C96.9320039,27.3595457 96.9940582,26.8765165 96.9940582,26.351917 C96.9940582,25.2478932 96.7524682,24.364373 96.269439,23.7019588 C95.7862592,23.0393939 95.123845,22.7081868 94.2818951,22.7081868 L94.2818951,22.7081868 Z M106.350095,21.0724845 L109.041623,21.0724845 L109.041623,22.873715 L106.350095,22.873715 L106.350095,27.2836347 C106.350095,27.6978319 106.37088,28.0635303 106.412149,28.3810313 C106.453719,28.6985322 106.536408,28.9675345 106.660667,29.1883392 C106.784926,29.4092946 106.960847,29.578287 107.18858,29.6956178 C107.416313,29.8130992 107.716644,29.8716892 108.089271,29.8716892 C108.282513,29.8716892 108.468826,29.8545189 108.648211,29.8198769 C108.827747,29.7853856 109.000203,29.7337239 109.165882,29.6645907 L109.227936,31.5072409 C108.979569,31.5900804 108.700023,31.6555988 108.389451,31.7040975 C108.078878,31.752295 107.764841,31.7763938 107.447491,31.7763938 C106.798632,31.7763938 106.260327,31.6902408 105.832574,31.5176335 C105.404671,31.3450262 105.056143,31.0897302 104.78699,30.7515947 C104.517837,30.4134591 104.328059,29.9994126 104.217657,29.5093044 C104.107254,29.0193468 104.051978,28.4569423 104.051978,27.8219404 L104.051978,22.873715 L101.815916,22.873715 L101.815916,21.0724845 L104.072763,21.0724845 L104.072763,18.7123137 L106.350095,17.9462749 L106.350095,21.0724845 L106.350095,21.0724845 Z M115.011635,26.9732127 C115.039349,27.925565 115.370556,28.6708187 116.005558,29.2091244 C116.640409,29.7474301 117.468502,30.0165829 118.489988,30.0165829 C119.097276,30.0165829 119.649439,29.9476003 120.146325,29.809635 C120.643211,29.671519 121.12624,29.4645711 121.595563,29.1883392 L121.678402,31.2382387 C120.725899,31.6798482 119.587234,31.9006529 118.262255,31.9006529 C117.392591,31.9006529 116.605918,31.7729296 115.901933,31.5176335 C115.198099,31.2623374 114.604517,30.8930242 114.121488,30.409995 C113.638308,29.9269657 113.265681,29.3403119 113.003457,28.6501841 C112.741232,27.9600563 112.610045,27.1732323 112.610045,26.2898627 C112.610045,25.4754758 112.734304,24.7302221 112.982671,24.0539511 C113.23119,23.3775294 113.583182,22.7979546 114.038648,22.3147748 C114.494115,21.831595 115.039349,21.4589681 115.6742,21.1967437 C116.309202,20.9345192 117.013036,20.8033317 117.786003,20.8033317 C119.262955,20.8033317 120.401621,21.248556 121.202151,22.1387033 C122.002681,23.0290013 122.403021,24.4057927 122.403021,26.2692282 C122.403021,26.3657738 122.399557,26.4831045 122.392629,26.6212205 C122.3857,26.7591858 122.375458,26.8765165 122.361602,26.9732127 L115.011635,26.9732127 L115.011635,26.9732127 Z M120.166959,25.2753056 C120.166959,24.3229533 119.94269,23.6260477 119.494152,23.1842876 C119.045464,22.7426781 118.448568,22.5217228 117.703164,22.5217228 C116.99933,22.5217228 116.395355,22.7563843 115.891541,23.2257073 C115.387877,23.6950304 115.094475,24.3782298 115.011635,25.2753056 L120.166959,25.2753056 L120.166959,25.2753056 Z M136.082975,28.4638707 C136.082975,29.0297394 136.089903,29.5921438 136.10376,30.1512347 C136.117617,30.7101749 136.14518,31.2105251 136.1866,31.6521346 L134.012592,31.6521346 C133.971322,31.1415425 133.950537,30.5273257 133.950537,29.809635 L133.909118,29.809635 C133.508777,30.485906 133.022284,31.0035772 132.449487,31.3623472 C131.87669,31.7211173 131.176169,31.9006529 130.348076,31.9006529 C129.630386,31.9006529 128.984991,31.769616 128.412194,31.5072409 C127.839397,31.2451671 127.352904,30.8758538 126.952563,30.3996024 C126.552373,29.9235015 126.245265,29.3437761 126.031238,28.6604261 C125.817362,27.9772267 125.710423,27.2215804 125.710423,26.3934873 C125.710423,25.5652436 125.820826,24.8095973 126.041631,24.1263979 C126.262435,23.4430479 126.576472,22.8565447 126.983741,22.3665871 C127.390859,21.8764789 127.880817,21.4934595 128.453614,21.2173782 C129.026411,20.9414476 129.664877,20.8033317 130.368711,20.8033317 C131.155535,20.8033317 131.83527,20.9690105 132.408067,21.3002176 C132.980864,21.6315754 133.433017,22.0870417 133.764224,22.6667671 L133.805644,22.6667671 C133.77793,22.3078464 133.76076,21.8834073 133.753831,21.3934497 C133.746903,20.9034921 133.743439,20.3962135 133.743439,19.8717646 L133.743439,16 L136.082975,16 L136.082975,28.4638707 L136.082975,28.4638707 Z M130.927802,22.6874016 C130.513755,22.6874016 130.140978,22.7806336 129.809771,22.9669471 C129.478563,23.1532605 129.19209,23.4120208 128.9505,23.7433785 C128.70906,24.0745856 128.522596,24.4645334 128.391559,24.9130713 C128.260372,25.3616092 128.194853,25.8482532 128.194853,26.3727021 C128.194853,26.8973017 128.260372,27.3803309 128.391559,27.8219404 C128.522596,28.2637005 128.705596,28.6467199 128.940258,28.9709987 C129.174919,29.295428 129.461242,29.5508747 129.799378,29.7371881 C130.137513,29.9235015 130.513755,30.0165829 130.927802,30.0165829 C131.341848,30.0165829 131.724868,29.9235015 132.07686,29.7371881 C132.428852,29.5508747 132.732496,29.295428 132.987792,28.9709987 C133.243089,28.6467199 133.439795,28.2637005 133.57791,27.8219404 C133.715876,27.3803309 133.784858,26.9040795 133.784858,26.3934873 C133.784858,25.8551816 133.715876,25.3616092 133.57791,24.9130713 C133.439795,24.4645334 133.246553,24.0745856 132.998185,23.7433785 C132.749667,23.4120208 132.449487,23.1532605 132.097494,22.9669471 C131.745653,22.7806336 131.355705,22.6874016 130.927802,22.6874016 L130.927802,22.6874016 Z" id="Fill-1" fill="#40799D"></path>
        </g>
    </g>
</svg>